<svg version="1.1" xmlns="http://www.w3.org/2000/svg" fill="none" viewBox="0 0 4600 4700" width="20" height="20">
    <path fill="#6E6E6E" transform="translate(887,445)"
          d="M0,0 L32,0 L53,3 L78,9 L104,18 L124,27 L140,36 L152,45 L165,56 L181,64 L208,76 L228,86 L250,98 L277,113 L304,129 L333,146 L359,162 L385,178 L404,190 L426,204 L448,218 L473,234 L499,251 L522,266 L551,285 L595,314 L610,324 L654,353 L682,372 L725,401 L740,411 L774,434 L799,451 L821,466 L843,481 L859,492 L878,505 L901,521 L920,534 L943,550 L959,561 L982,577 L1002,591 L1022,605 L1042,619 L1059,631 L1076,643 L1093,655 L1110,667 L1128,680 L1148,694 L1166,707 L1183,719 L1201,732 L1215,742 L1221,745 L1218,721 L1213,689 L1195,629 L1180,574 L1170,533 L1158,476 L1150,431 L1143,381 L1141,358 L1140,329 L1141,304 L1142,292 L1142,251 L1141,241 L1140,210 L1141,185 L1145,165 L1152,146 L1159,133 L1169,120 L1179,111 L1193,103 L1206,99 L1212,98 L1229,98 L1245,102 L1257,107 L1276,118 L1284,123 L1290,123 L1306,116 L1320,113 L1338,113 L1352,116 L1367,122 L1377,128 L1387,136 L1396,146 L1401,156 L1404,168 L1409,171 L1444,182 L1467,192 L1492,205 L1514,219 L1532,232 L1545,242 L1561,255 L1572,264 L1585,275 L1599,287 L1613,299 L1626,311 L1634,318 L1646,329 L1658,340 L1671,352 L1687,367 L1697,377 L1705,384 L1777,456 L1784,464 L1795,475 L1802,483 L1809,490 L1816,498 L1832,515 L1839,523 L1850,535 L1857,543 L1866,553 L1875,564 L1885,575 L1894,586 L1907,601 L1916,612 L1925,623 L1937,637 L1945,645 L1952,653 L1961,662 L1968,670 L1979,682 L1988,693 L2002,710 L2013,724 L2029,745 L2041,761 L2054,779 L2067,797 L2083,820 L2096,839 L2118,872 L2133,895 L2150,923 L2164,948 L2177,975 L2191,1009 L2195,1019 L2210,1019 L2220,1022 L2229,1029 L2236,1040 L2242,1056 L2247,1076 L2249,1079 L2262,1082 L2271,1087 L2280,1096 L2284,1104 L2286,1112 L2286,1129 L2282,1142 L2276,1155 L2271,1170 L2271,1175 L2409,1175 L2472,1177 L2522,1180 L2564,1184 L2602,1190 L2606,1191 L2606,1179 L2610,1150 L2617,1119 L2625,1093 L2633,1072 L2640,1056 L2652,1034 L2662,1018 L2673,1002 L2683,989 L2694,976 L2703,965 L2715,952 L2726,940 L2750,916 L2758,909 L2775,893 L2783,886 L2800,872 L2819,858 L2827,852 L2828,847 L2829,809 L2833,785 L2838,765 L2847,738 L2856,717 L2864,701 L2874,682 L2885,665 L2897,648 L2908,634 L2917,624 L2924,616 L2939,601 L2950,592 L2963,582 L2979,572 L3002,560 L3027,551 L3044,546 L3066,542 L3085,540 L3108,540 L3134,542 L3146,545 L3154,550 L3159,556 L3161,560 L3161,575 L3156,585 L3154,590 L3156,594 L3161,596 L3167,604 L3169,609 L3169,614 L3165,612 L3153,601 L3145,596 L3132,604 L3124,611 L3111,629 L3102,643 L3094,659 L3086,680 L3080,701 L3074,732 L3069,772 L3069,784 L3107,785 L3139,788 L3164,792 L3192,799 L3225,810 L3250,821 L3274,833 L3291,843 L3315,859 L3334,873 L3348,885 L3362,897 L3369,904 L3377,911 L3388,922 L3395,930 L3408,944 L3412,949 L3417,950 L3428,943 L3436,935 L3444,928 L3454,917 L3464,904 L3474,889 L3484,871 L3491,856 L3498,830 L3507,790 L3510,769 L3510,751 L3508,741 L3509,732 L3512,725 L3519,714 L3524,709 L3525,706 L3536,706 L3548,712 L3558,722 L3567,733 L3576,745 L3587,763 L3598,785 L3607,809 L3616,838 L3622,865 L3627,898 L3628,908 L3629,934 L3629,957 L3628,982 L3624,1012 L3618,1039 L3612,1059 L3603,1080 L3594,1097 L3581,1116 L3562,1144 L3553,1155 L3538,1171 L3525,1183 L3515,1190 L3514,1192 L3514,1200 L3518,1234 L3520,1273 L3520,1292 L3519,1302 L3525,1306 L3527,1309 L3527,1320 L3522,1328 L3521,1333 L3520,1333 L3518,1327 L3517,1327 L3511,1363 L3505,1387 L3493,1423 L3482,1455 L3471,1479 L3458,1501 L3445,1518 L3432,1534 L3419,1549 L3410,1558 L3405,1563 L3400,1568 L3386,1582 L3375,1591 L3362,1602 L3345,1614 L3326,1625 L3310,1633 L3291,1642 L3266,1653 L3236,1666 L3206,1677 L3178,1685 L3151,1691 L3126,1695 L3105,1697 L3056,1697 L3028,1694 L2997,1688 L2975,1683 L2972,1692 L2954,1731 L2939,1765 L2928,1788 L2912,1823 L2898,1853 L2880,1892 L2861,1933 L2842,1974 L2829,2002 L2811,2041 L2793,2080 L2774,2121 L2763,2143 L2752,2166 L2733,2204 L2721,2226 L2707,2252 L2697,2270 L2683,2296 L2671,2318 L2660,2341 L2644,2379 L2641,2387 L2641,2393 L2648,2400 L2653,2403 L2683,2408 L2699,2413 L2715,2421 L2728,2430 L2741,2442 L2751,2453 L2764,2471 L2779,2496 L2793,2523 L2809,2559 L2827,2605 L2843,2649 L2858,2692 L2881,2761 L2897,2811 L2923,2895 L2943,2962 L2962,3027 L2980,3090 L3001,3165 L3020,3235 L3044,3328 L3065,3413 L3081,3482 L3101,3574 L3107,3606 L3107,3614 L65,3614 L66,3607 L70,3597 L77,3587 L86,3576 L93,3568 L93,3561 L87,3543 L85,3534 L85,3513 L88,3499 L94,3483 L102,3470 L111,3459 L123,3445 L132,3435 L139,3427 L159,3407 L170,3398 L186,3383 L198,3370 L209,3356 L216,3346 L220,3336 L220,3299 L219,3278 L219,3219 L220,3188 L216,3184 L206,3178 L196,3169 L183,3152 L169,3130 L163,3119 L149,3090 L143,3083 L132,3074 L117,3061 L102,3047 L94,3040 L87,3033 L79,3026 L69,3018 L53,3008 L42,3001 L31,3001 L1,3008 L-39,3014 L-69,3019 L-112,3027 L-158,3034 L-208,3040 L-264,3045 L-327,3049 L-374,3051 L-410,3052 L-498,3052 L-547,3050 L-583,3047 L-620,3042 L-647,3036 L-674,3027 L-695,3016 L-708,3006 L-720,2994 L-730,2979 L-736,2964 L-741,2945 L-742,2939 L-742,2914 L-738,2894 L-729,2862 L-719,2833 L-706,2802 L-692,2772 L-676,2739 L-664,2716 L-651,2693 L-640,2673 L-623,2645 L-612,2627 L-596,2602 L-568,2560 L-556,2543 L-543,2525 L-533,2511 L-517,2490 L-508,2478 L-497,2464 L-484,2448 L-473,2434 L-460,2419 L-451,2408 L-442,2398 L-433,2387 L-422,2375 L-415,2367 L-406,2357 L-395,2345 L-384,2333 L-369,2317 L-366,2312 L-367,2304 L-369,2295 L-370,2268 L-376,2261 L-392,2253 L-409,2244 L-423,2234 L-433,2225 L-439,2215 L-441,2202 L-438,2190 L-432,2182 L-424,2176 L-425,2169 L-433,2153 L-439,2142 L-455,2118 L-464,2102 L-474,2081 L-483,2056 L-491,2024 L-497,1994 L-506,1967 L-518,1931 L-534,1881 L-557,1802 L-579,1724 L-598,1654 L-619,1572 L-633,1515 L-647,1453 L-659,1393 L-667,1346 L-678,1276 L-683,1247 L-697,1177 L-712,1083 L-723,1006 L-730,948 L-735,898 L-738,855 L-739,830 L-740,781 L-743,781 L-748,784 L-758,785 L-764,782 L-769,774 L-771,767 L-771,750 L-767,732 L-761,714 L-753,696 L-745,681 L-735,667 L-726,657 L-718,649 L-703,638 L-693,632 L-693,629 L-709,626 L-737,626 L-745,627 L-759,627 L-768,624 L-776,617 L-779,611 L-780,606 L-780,598 L-777,588 L-770,577 L-759,568 L-742,559 L-727,554 L-706,550 L-703,550 L-707,546 L-745,532 L-769,523 L-778,516 L-782,511 L-785,502 L-785,489 L-781,479 L-774,471 L-764,466 L-752,463 L-729,463 L-704,467 L-678,474 L-662,478 L-633,478 L-612,483 L-588,492 L-568,502 L-551,512 L-533,524 L-519,534 L-500,548 L-486,559 L-470,572 L-460,580 L-447,591 L-436,600 L-423,611 L-409,622 L-390,634 L-368,649 L-349,663 L-335,674 L-321,686 L-310,695 L-294,710 L-286,717 L-270,732 L-263,739 L-255,746 L-238,763 L-230,770 L-106,894 L-99,902 L-74,927 L-67,935 L-47,955 L-40,963 L-29,974 L-27,975 L-29,944 L-32,870 L-40,827 L-50,763 L-59,696 L-68,620 L-80,506 L-91,393 L-97,323 L-100,276 L-103,201 L-104,165 L-104,137 L-102,102 L-99,86 L-86,55 L-79,43 L-71,33 L-62,24 L-47,14 L-32,7 L-13,2 Z M3041,956 L3017,959 L2989,965 L2959,975 L2939,984 L2922,993 L2908,1003 L2895,1014 L2883,1025 L2866,1042 L2855,1056 L2845,1069 L2833,1088 L2822,1109 L2813,1132 L2806,1156 L2802,1176 L2800,1193 L2799,1216 L2798,1217 L2797,1238 L2796,1250 L2800,1262 L2802,1273 L2804,1278 L2809,1297 L2814,1313 L2816,1322 L2818,1327 L2820,1336 L2829,1353 L2843,1374 L2847,1379 L2851,1379 L2853,1383 L2863,1397 L2871,1406 L2877,1408 L2882,1408 L2892,1417 L2902,1427 L2910,1434 L2924,1446 L2940,1458 L2961,1470 L2984,1482 L2999,1487 L3034,1496 L3053,1500 L3058,1496 L3064,1489 L3067,1487 L3073,1486 L3073,1484 L3086,1484 L3118,1479 L3150,1471 L3185,1460 L3206,1452 L3222,1445 L3236,1436 L3247,1427 L3255,1419 L3266,1405 L3278,1387 L3290,1365 L3298,1346 L3305,1326 L3311,1304 L3316,1279 L3319,1255 L3319,1203 L3316,1177 L3310,1153 L3303,1133 L3294,1112 L3286,1096 L3276,1078 L3263,1059 L3250,1043 L3239,1031 L3231,1023 L3220,1014 L3203,1001 L3185,990 L3162,978 L3142,970 L3123,964 L3101,959 L3077,956 Z M2533,2012 L2525,2019 L2513,2030 L2487,2056 L2480,2064 L2469,2076 L2462,2084 L2448,2099 L2434,2114 L2417,2130 L2406,2140 L2395,2149 L2381,2161 L2371,2169 L2367,2174 L2367,2190 L2364,2198 L2353,2213 L2347,2224 L2339,2235 L2329,2246 L2315,2257 L2298,2269 L2279,2281 L2261,2291 L2242,2300 L2239,2303 L2240,2311 L2243,2321 L2245,2323 L2269,2322 L2315,2322 L2330,2323 L2343,2323 L2354,2322 L2373,2322 L2385,2325 L2391,2328 L2395,2327 L2399,2319 L2411,2288 L2426,2253 L2443,2216 L2457,2186 L2474,2151 L2491,2116 L2503,2091 L2520,2050 L2534,2016 Z"/>
</svg>
